#!OML:ASF H:\LiuWeirdWalks\Patient Classification 1\Patient 1\Session 1\male.ASF
:FULLY-SPECIFIED
:DEGREES
259
root 0.15258 18.1442 -3.84437 3.36087 14.5093 -0.901076
lowerback 8.19024 -2.43531 0.865949
upperback -1.31506 -2.85993 5.01367
thorax -5.76328 -1.34798 5.15163
lowerneck -17.222 -3.61847 2.05779
upperneck 19.7154 -5.04614 -2.3096
head 8.89779 -2.4613 -1.75635
rclavicle 3.98563e-014 2.38542e-014
rhumerus -43.7958 -24.5155 -59.0389
rradius 29.8629
rwrist -7.63042
rhand -9.66714 -4.90075
rfingers 7.12502
rthumb 16.3042 -34.2353
lclavicle 3.98563e-014 2.38542e-014
lhumerus -46.5667 -21.1419 92.746
lradius 71.7857
lwrist 2.08764
lhand -0.591839 -4.80564
lfingers 7.12502
lthumb 25.0234 23.5753
rfemur -19.8961 0.72015 23.2399
rtibia 33.5449
rfoot -7.13694 -23.14
rtoes -1.10062
lfemur -10.0725 1.25485 -15.1665
ltibia 62.2544
lfoot 2.01953 6.01718
ltoes -12.8846
260
root 0.158737 18.1582 -3.65281 3.20736 14.2251 -1.05852
lowerback 8.15761 -2.4029 1.00139
upperback -1.25644 -2.80793 4.98842
thorax -5.69475 -1.3287 5.03658
lowerneck -17.1226 -3.66217 1.94916
upperneck 19.7075 -5.09517 -2.22257
head 8.88166 -2.48305 -1.71246
rclavicle 9.24349e-015 -1.59028e-014
rhumerus -44.0663 -23.813 -59.7201
rradius 28.3021
rwrist -6.74701
rhand -9.2895 -5.21335
rfingers 7.12502
rthumb 16.6677 -34.5177
lclavicle 9.24349e-015 -1.59028e-014
lhumerus -46.2817 -21.4518 92.3898
lradius 73.9414
lwrist 2.04744
lhand -3.09443 -4.14891
lfingers 7.12502
lthumb 22.6233 24.5453
rfemur -18.9023 0.700983 23.6319
rtibia 33.1894
rfoot -7.47852 -23.1909
rtoes -1.26845
lfemur -11.3496 1.71362 -15.1133
ltibia 62.5147
lfoot 0.707498 6.24056
ltoes -13.5961
261
root 0.164876 18.166 -3.46316 3.05349 13.9533 -1.25608
lowerback 8.11598 -2.37555 1.1766
upperback -1.18128 -2.75926 4.9732
thorax -5.60467 -1.31235 4.90895
lowerneck -17.0665 -3.6934 1.87029
upperneck 19.6951 -5.12839 -2.16858
head 8.87033 -2.49885 -1.68369
rclavicle -5.53615e-014 4.6118e-014
rhumerus -44.3047 -23.0871 -60.4633
rradius 26.8547
rwrist -5.56231
rhand -8.85018 -5.36617
rfingers 7.12502
rthumb 17.0906 -34.6344
lclavicle -5.53615e-014 4.6118e-014
lhumerus -45.9087 -21.7088 91.9534
lradius 75.9738
lwrist 2.02774
lhand -5.72032 -3.70555
lfingers 7.12502
lthumb 20.1012 25.2746
rfemur -17.9579 0.636406 24.074
rtibia 32.8953
rfoot -7.88433 -23.2831
rtoes -1.36317
lfemur -12.6522 2.12441 -15.0265
ltibia 62.7004
lfoot -0.514547 6.52182
ltoes -14.1028
262
root 0.170905 18.1678 -3.27557 2.90602 13.7005 -1.47963
lowerback 8.08585 -2.35513 1.37941
upperback -1.10427 -2.71643 4.96548
thorax -5.5195 -1.29923 4.77525
lowerneck -17.024 -3.72092 1.78599
upperneck 19.6675 -5.15495 -2.11546
head 8.85664 -2.51222 -1.65354
rclavicle -4.11484e-014 5.40694e-014
rhumerus -44.5368 -22.3013 -61.2762
rradius 25.5607
rwrist -4.1617
rhand -8.32713 -5.36735
rfingers 7.12502
rthumb 17.5941 -34.5913
lclavicle -4.11484e-014 5.40694e-014
lhumerus -45.4732 -21.9005 91.4477
lradius 77.8877
lwrist 2.01831
lhand -8.29967 -3.45472
lfingers 7.12502
lthumb 17.6205 25.7668
rfemur -17.0642 0.509879 24.5538
rtibia 32.6611
rfoot -8.34624 -23.4182
rtoes -1.40443
lfemur -13.9896 2.48612 -14.9179
ltibia 62.8154
lfoot -1.63988 6.83332
ltoes -14.4485
263
root 0.176569 18.1639 -3.09005 2.75998 13.4549 -1.73461
lowerback 8.07599 -2.34217 1.60799
upperback -1.01901 -2.6801 4.96753
thorax -5.43729 -1.28958 4.63919
lowerneck -17.0194 -3.72633 1.7377
upperneck 19.6726 -5.15525 -2.09
head 8.85976 -2.51317 -1.63715
rclavicle -2.0773e-014 2.70347e-014
rhumerus -44.7454 -21.4492 -62.1818
rradius 24.4478
rwrist -2.65032
rhand -7.73153 -5.28131
rfingers 7.12502
rthumb 18.1671 -34.4529
lclavicle -2.0773e-014 2.70347e-014
lhumerus -44.9706 -22.0154 90.8611
lradius 79.6981
lwrist 2.05507
lhand -10.7566 -3.39051
lfingers 7.12502
lthumb 15.255 26.027
rfemur -16.2107 0.379563 25.0786
rtibia 32.483
rfoot -8.86306 -23.6379
rtoes -1.39255
lfemur -15.3517 2.81894 -14.7762
ltibia 62.8618
lfoot -2.65921 7.15491
ltoes -14.661
264
root 0.181859 18.1544 -2.90697 2.62557 13.2158 -1.99795
lowerback 8.07985 -2.33518 1.84107
upperback -0.923503 -2.6511 4.9749
thorax -5.35138 -1.28332 4.50765
lowerneck -17.056 -3.72189 1.69417
upperneck 19.6618 -5.14209 -2.07154
head 8.86479 -2.50836 -1.62297
rclavicle -7.15625e-015 -1.59028e-014
rhumerus -44.9327 -20.5311 -63.179
rradius 23.5351
rwrist -1.12652
rhand -7.06343 -5.1201
rfingers 7.12502
rthumb 18.8098 -34.2306
lclavicle -7.15625e-015 -1.59028e-014
lhumerus -44.3977 -22.0568 90.2016
lradius 81.411
lwrist 2.15604
lhand -13.0478 -3.53774
lfingers 7.12502
lthumb 13.0471 26.0342
rfemur -15.3968 0.244205 25.6224
rtibia 32.3515
rfoot -9.4373 -23.933
rtoes -1.33625
lfemur -16.7412 3.12015 -14.6271
ltibia 62.8373
lfoot -3.59366 7.49088
ltoes -14.7819
265
root 0.187219 18.1396 -2.72564 2.50882 12.972 -2.25333
lowerback 8.09815 -2.32975 2.06642
upperback -0.824208 -2.62468 4.9819
thorax -5.26905 -1.27772 4.38121
lowerneck -17.104 -3.70926 1.6641
upperneck 19.6235 -5.11796 -2.06705
head 8.86187 -2.49925 -1.61404
rclavicle 2.49475e-014 -3.18055e-015
rhumerus -45.0972 -19.5586 -64.2584
rradius 22.8097
rwrist 0.325531
rhand -6.37605 -4.96286
rfingers 7.12502
rthumb 19.4708 -34.008
lclavicle 2.49475e-014 -3.18055e-015
lhumerus -43.7669 -22.0263 89.4777
lradius 83.0659
lwrist 2.49007
lhand -15.0503 -3.81477
lfingers 7.12502
lthumb 11.1162 25.8708
rfemur -14.6145 0.14947 26.1635
rtibia 32.2554
rfoot -10.0467 -24.3188
rtoes -1.26776
lfemur -18.1464 3.3945 -14.4895
ltibia 62.7331
lfoot -4.45586 7.82636
ltoes -14.9236
266
root 0.192236 18.1203 -2.5461 2.40977 12.7208 -2.50628
lowerback 8.13806 -2.32343 2.28764
upperback -0.737341 -2.59596 4.98641
thorax -5.21193 -1.2703 4.25614
lowerneck -17.1503 -3.70496 1.597
upperneck 19.602 -5.10255 -2.03102
head 8.86626 -2.49328 -1.58983
rclavicle -2.5842e-015 2.70347e-014
rhumerus -45.2789 -18.5529 -65.3873
rradius 22.2548
rwrist 1.6479
rhand -5.69362 -4.80827
rfingers 7.12502
rthumb 20.1269 -33.7857
lclavicle -2.5842e-015 2.70347e-014
lhumerus -43.137 -21.9332 88.7085
lradius 84.6802
lwrist 3.04273
lhand -16.8421 -4.31498
lfingers 7.12502
lthumb 9.3877 25.456
rfemur -13.8561 0.129424 26.7059
rtibia 32.1782
rfoot -10.6803 -24.7955
rtoes -1.17884
lfemur -19.5616 3.64804 -14.3515
ltibia 62.5404
lfoot -5.26329 8.14429
ltoes -15.0971
267
root 0.197266 18.0972 -2.36741 2.33759 12.4465 -2.72881
lowerback 8.16711 -2.3092 2.47694
upperback -0.644113 -2.56156 4.98006
thorax -5.1411 -1.25924 4.13607
lowerneck -17.1916 -3.68789 1.58299
upperneck 19.5261 -5.0722 -2.04402
head 8.84836 -2.48243 -1.58762
rclavicle 4.35338e-014 -9.54166e-015
rhumerus -45.4419 -17.5952 -66.5233
rradius 21.7963
rwrist 2.90004
rhand -5.08219 -4.62351
rfingers 7.12502
rthumb 20.7144 -33.538
lclavicle 4.35338e-014 -9.54166e-015
lhumerus -42.4671 -21.7815 87.8818
lradius 86.2284
lwrist 3.71528
lhand -18.428 -5.02707
lfingers 7.12502
lthumb 7.85724 24.8069
rfemur -13.112 0.192602 27.2127
rtibia 32.1001
rfoot -11.3304 -25.3226
rtoes -1.07933
lfemur -20.9723 3.88135 -14.2455
ltibia 62.242
lfoot -6.01145 8.43416
ltoes -15.2722
